<?xml version="1.0" encoding="UTF-8"?>
<svg xmlns="http://www.w3.org/2000/svg" xmlns:project="https://axe-shaper.app/ns/project/1" width="442.95mm" height="640.83mm" viewBox="-191.59 -15.42 442.95 640.83">
<metadata>
<project:name>Custom SG-Style Bass Blueprint</project:name>
<project:units>millimeters</project:units>
<project:schemaVersion>3</project:schemaVersion>
<project:appVersion>1.0.0</project:appVersion>
<project:data>eyJhY3RpdmVUZW1wbGF0ZUlkIjoic2dfYmFzc19zdHlsZSIsImFwcFZlcnNpb24iOiIxLjAuMCIsImJhY2tSb3V0ZXMiOlt7ImNvbnRvdXIiOnsiYW5jaG9ycyI6W3siaGFuZGxlSW4iOnsieCI6LTE1Ljg4NjkyNTA2NzY3MTk0OCwieSI6MTYuNDgzNDY5NzE5NTMxMDk0fSwiaGFuZGxlTW9kZSI6InNtb290aCIsImhhbmRsZU91dCI6eyJ4Ijo5LjYyNzg2NDYwOTYzMDQ5NiwieSI6LTkuOTg5Mzg1MjM4NTI3MTY1fSwiaWQiOiJhbmNob3JfMTc4ODAzMzAzMjQxMF96MzkxMCIsInBvc2l0aW9uIjp7IngiOjYxLjA2NzMyMzQ1MjkxNjAzLCJ5IjozNzMuMzkxODA2OTg0ODg2MTZ9fSx7ImhhbmRsZUluIjp7IngiOi0xMy44MzM0NzM0MzEzOTQ1NjYsInkiOjE1LjEyMTQ0MTA2MTQyMzgwOX0sImhhbmRsZU1vZGUiOiJzbW9vdGgiLCJoYW5kbGVPdXQiOnsieCI6MTQuNTczMjMxMzY4OTAyMjk5LCJ5IjotMTUuOTMwMDc0MjczMjY0NjY1fSwiaWQiOiJhbmNob3JfMTc4ODAzMzA2MzU4OF8zejY0aSIsInBvc2l0aW9uIjp7IngiOjEwMi4xNDY4NjM1MzA1MDY2LCJ5IjozNTIuMjkxNDMzODAxNDQyNDV9LCJzZW1hbnRpY1JvbGUiOiJjdXN0b20ifSx7ImhhbmRsZUluIjp7IngiOi03Ljc3OTYzMDMyMTMyMzgwOSwieSI6OC41MTc4OTc0Njg0MDg4MjZ9LCJoYW5kbGVNb2RlIjoic21vb3RoIiwiaGFuZGxlT3V0Ijp7IngiOjE5LjI1NTI3MjUxODA5OTI1NywieSI6LTIxLjA4MjU0ODk0NjU1ODQ4Mn0sImlkIjoiYW5jaG9yXzE3ODgwMzMwMzI0MTBfcWtibHciLCJwb3NpdGlvbiI6eyJ4IjoxMTguNzUzNDUxNjkwMDY0NTIsInkiOjMxMS44NzIyNTM5OTM4NDd9fSx7ImhhbmRsZUluIjp7IngiOjAuMDk2MzI4OTc2NjEwMzIyNywieSI6LTE4LjY3MTEzODc0OTk2MDkyNH0sImhhbmRsZU1vZGUiOiJzbW9vdGgiLCJoYW5kbGVPdXQiOnsieCI6LTAuMDU1ODMyODM2NTAyNDYyMTMsInkiOjEwLjgyMTkwMDg4NDA3NTY0Nn0sImlkIjoiYW5jaG9yXzE3ODgwMzMwMzI0MTBfZG53a2siLCJwb3NpdGlvbiI6eyJ4IjoxNTguMTY3NjczNzc1ODQ4OTUsInkiOjMyMy40OTA3NzUwMzE0MDI1Nn19LHsiaGFuZGxlSW4iOnsieCI6MjAuODg5ODQ2NzkyNjc3ODMsInkiOi0yMy4wMjc1NTE0NjUzMjQxMX0sImhhbmRsZU1vZGUiOiJzbW9vdGgiLCJoYW5kbGVPdXQiOnsieCI6LTIwLjI0NzA4MjI3NTk4MDA1LCJ5IjoyMi4zMTkwMTE0MjAyMzcxOX0sImlkIjoiYW5jaG9yXzE3ODgwMzMwNjU2OThfbDI5ODIiLCJwb3NpdGlvbiI6eyJ4IjoxMzUuNDUwNjk1MDc3MjY1MzgsInkiOjM4MS4zODExNDE4MTk3OTc0NX0sInNlbWFudGljUm9sZSI6ImN1c3RvbSJ9LHsiaGFuZGxlSW4iOnsieCI6MTMuMzE1MzgzMzkwNjI2MDA5LCJ5IjotNC4zNzAxNDgyMzMzNjMzMzd9LCJoYW5kbGVNb2RlIjoic21vb3RoIiwiaGFuZGxlT3V0Ijp7IngiOi0xOC42OTkxNjM1NjQ1MDc5NjMsInkiOjYuMTM3MTIwODE4NzkxODg0fSwiaWQiOiJhbmNob3JfMTc4ODAzMzAzMjQxMF9qMWY4cyIsInBvc2l0aW9uIjp7IngiOjc3Ljk1OTEzMjkxODI1MjIyLCJ5Ijo0MDkuNjE4MTQ5MjE4ODU3NDd9fV0sImNsb3NlZCI6dHJ1ZX0sImlkIjoicm91dGVfMTc4ODAzMzAzMjQxMF9rNXp1aCIsImxvY2tlZCI6ZmFsc2UsInZpc2libGUiOnRydWV9XSwiYm9keVRoaWNrbmVzc01tIjo0NSwiYnJpZGdlUHJlc2V0Ijp7ImNvbXBlbnNhdGlvbk1tIjp7ImJhc3MiOjkuNSwidHJlYmxlIjozLjJ9LCJoZWlnaHRNbSI6MTIsImlkIjoiYmFzc192aW50YWdlX3BsYXRlIiwibGVuZ3RoTW0iOjUzLjA5LCJuYW1lIjoiQmFzcyBWaW50YWdlIFBsYXRlICg0LVN0cmluZykiLCJzYWRkbGVPZmZzZXRZTW0iOjI2LjUsInNjYWxlUmVmZXJlbmNlIjoic2FkZGxlX2xpbmUiLCJzdHJpbmdTcGFjaW5nTW0iOjU3LjE1LCJ3aWR0aE1tIjo4MS4wM30sImJyaWRnZVByZXNldElkIjoiYmFzc192aW50YWdlX3BsYXRlIiwiY29udG91ciI6eyJhbmNob3JzIjpbeyJiZXZlbEludGVuc2l0eSI6MCwiaGFuZGxlSW4iOnsieCI6MjEuMDI4LCJ5IjowLjA0Mn0sImhhbmRsZU1vZGUiOiJjb3JuZXIiLCJpZCI6InNnX3BvY2tldF9sZWZ0IiwicG9zaXRpb24iOnsieCI6LTMxLjc1LCJ5IjowfSwic2VtYW50aWNSb2xlIjoibmVja19wb2NrZXRfbGVmdCJ9LHsiYmV2ZWxJbnRlbnNpdHkiOjAsImhhbmRsZU1vZGUiOiJjb3JuZXIiLCJoYW5kbGVPdXQiOnsieCI6LTIuNDYyLCJ5IjoyMy45MjZ9LCJpZCI6ImFuY2hvcl8xNzg2MDUwODU0MTYyX3RxMnl3IiwicG9zaXRpb24iOnsieCI6LTMxLjk3NjMzMjA4MzA3MjA5NCwieSI6NDguNjg4Mjc4NDE4MzM5ODl9LCJzZW1hbnRpY1JvbGUiOiJjdXN0b20ifSx7ImhhbmRsZUluIjp7IngiOjE2Ljk2OSwieSI6MTYuMDQ4fSwiaGFuZGxlTW9kZSI6InNtb290aCIsImhhbmRsZU91dCI6eyJ4IjotMjMuMDY5LCJ5IjotMjEuODE3fSwiaWQiOiJzZ19ob3JuX3Njb29wX2xlZnQiLCJwb3NpdGlvbiI6eyJ4IjotNzguMjYwMjkxNTU3NjU1OTMsInkiOjU4Ljc1MTIzNjE0NzQ0ODAyfX0seyJiZXZlbEludGVuc2l0eSI6MC43NSwiaGFuZGxlSW4iOnsieCI6MTAuNTA2MTcyNDUzNjE1OTg3LCJ5Ijo1LjMwNTI0NTg1MDUyNDAyNjV9LCJoYW5kbGVNb2RlIjoic21vb3RoIiwiaGFuZGxlT3V0Ijp7IngiOi05Ljk4MjQyMzMxNjI4MTkxOSwieSI6LTUuMDQwNzcxMDQyOTkzMDcyfSwiaWQiOiJzZ191cHBlcl9ob3JuX3RpcF9sZWZ0IiwicG9zaXRpb24iOnsieCI6LTg1LjQ4ODg2OTA0Njc5MjI1LCJ5Ijo2LjAyMDU3MDEwNTkxMTk2N30sInNlbWFudGljUm9sZSI6InVwcGVyX2hvcm5fbGVmdCJ9LHsiYmV2ZWxJbnRlbnNpdHkiOjEuMiwiaGFuZGxlSW4iOnsieCI6My40NzA0MjA2MzU0NzE4ODAzLCJ5IjotNzguODE2OTYyOTY1NTM1MjR9LCJoYW5kbGVNb2RlIjoic21vb3RoIiwiaGFuZGxlT3V0Ijp7IngiOi0yLjA5NjU5OTQ0MzgyNjA3NCwieSI6NDcuNjE2MDE0OTA4NTU5NDY0fSwiaWQiOiJzZ191cHBlcl9ib3V0X291dGVyX2xlZnQiLCJwb3NpdGlvbiI6eyJ4IjotMTM5LjM1NTU4ODYyMzE0NDM0LCJ5IjoxMDYuMDEzNTcwMTA1OTExOTh9fSx7ImJldmVsSW50ZW5zaXR5IjoyLCJoYW5kbGVJbiI6eyJ4IjotMS4wMTQsInkiOi0yNy44NzZ9LCJoYW5kbGVNb2RlIjoic21vb3RoIiwiaGFuZGxlT3V0Ijp7IngiOjAuOTc0LCJ5IjoyNi43Nn0sImlkIjoic2dfd2Fpc3RfbGVmdCIsInBvc2l0aW9uIjp7IngiOi0xMTYuODk3MDA5MjU4NjE2MiwieSI6MTk1LjU0Mjk5OTk5OTk5OTk4fSwic2VtYW50aWNSb2xlIjoid2Fpc3RfbGVmdCJ9LHsiYmV2ZWxJbnRlbnNpdHkiOjEuNzUsImhhbmRsZUluIjp7IngiOjE3LjY0ODQ4ODYwOTY2NjY0MywieSI6LTI3LjMzNDc2MDg3MDU2NTY2fSwiaGFuZGxlTW9kZSI6InNtb290aCIsImhhbmRsZU91dCI6eyJ4IjotMjAuMjY3OTEwNjU0NzI2NzE2LCJ5IjozMS4zOTE4Mzc3NTcxMTQ4NX0sImlkIjoic2dfbG93ZXJfYm91dF9sZWZ0IiwicG9zaXRpb24iOnsieCI6LTE1Ni4zMTgwMDkyNTg2MTYxNywieSI6MjY3LjcwNTQyMDYzNTQ3MTg1fSwic2VtYW50aWNSb2xlIjoibG93ZXJfYm91dF9sZWZ0In0seyJiZXZlbEludGVuc2l0eSI6MS4zLCJoYW5kbGVJbiI6eyJ4IjotNDMuNjc3LCJ5IjotMjYuMzk1fSwiaGFuZGxlTW9kZSI6InNtb290aCIsImhhbmRsZU91dCI6eyJ4IjozOS43MzIsInkiOjI0LjAxMX0sImlkIjoic2dfbG93ZXJfYm91dF9ib3R0b21fbGVmdCIsInBvc2l0aW9uIjp7IngiOi0xMzAuMTMzNTg4NjIzMTQ0MzMsInkiOjM5Ny42OTQ3Mjg4MzQ5NjgzfX0seyJiZXZlbEludGVuc2l0eSI6MC42NSwiaGFuZGxlSW4iOnsieCI6LTYyLjIzLCJ5IjowfSwiaGFuZGxlTW9kZSI6InN5bW1ldHJpYyIsImhhbmRsZU91dCI6eyJ4Ijo2Mi4yMywieSI6MH0sImlkIjoic2dfdGFpbF9jZW50ZXIiLCJwb3NpdGlvbiI6eyJ4IjotMC40NzY5OTk5OTk5OTk5OTk2NSwieSI6NDI5LjQxMDU3OTM2NDUyODJ9LCJzZW1hbnRpY1JvbGUiOiJ0YWlsX2NlbnRlciJ9LHsiYmV2ZWxJbnRlbnNpdHkiOjAuMjUsImhhbmRsZUluIjp7IngiOi0zNi4wNiwieSI6MjQuMzY4fSwiaGFuZGxlTW9kZSI6InNtb290aCIsImhhbmRsZU91dCI6eyJ4IjozOS41OTIsInkiOi0yNi43NTV9LCJpZCI6InNnX2xvd2VyX2JvdXRfYm90dG9tX3JpZ2h0IiwicG9zaXRpb24iOnsieCI6MTMxLjc3MTU3OTM2NDUyODEyLCJ5IjozOTcuMDA1MTU4NzI5MDU2MzV9fSx7ImJldmVsSW50ZW5zaXR5IjowLjMsImhhbmRsZUluIjp7IngiOjEwLjU3ODg4NDk3NTcxOTA3LCJ5IjoyNi42ODM4ODQzMDY4MTIzNzd9LCJoYW5kbGVNb2RlIjoic21vb3RoIiwiaGFuZGxlT3V0Ijp7IngiOi0xNy4wNTA0NzQ3MTczNjQwOCwieSI6LTQzLjAwNzY0MTcxMDY5NDI4fSwiaWQiOiJzZ19sb3dlcl9ib3V0X3JpZ2h0IiwicG9zaXRpb24iOnsieCI6MTYwLjMwMzMxNzQ1ODExMjY3LCJ5IjoyODguODY2NDI5ODk0MDg4fSwic2VtYW50aWNSb2xlIjoibG93ZXJfYm91dF9yaWdodCJ9LHsiYmV2ZWxJbnRlbnNpdHkiOjAuNjUsImhhbmRsZUluIjp7IngiOjIuNDI5MTQwMjExODIzOTIyLCJ5IjoyOS4yNDUxNTg3MjkwNTYzfSwiaGFuZGxlTW9kZSI6InNtb290aCIsImhhbmRsZU91dCI6eyJ4IjotMi42NTI2NTQ1ODc5NDIxNTEsInkiOi0zMS45MzYxMTYzNjc0Nzc0N30sImlkIjoic2dfd2Fpc3RfcmlnaHQiLCJwb3NpdGlvbiI6eyJ4IjoxMTMuODgzMTQ5NDcwNDQwMTMsInkiOjIwMy4xMDU4NDEyNzA5NDM2N30sInNlbWFudGljUm9sZSI6IndhaXN0X3JpZ2h0In0seyJoYW5kbGVJbiI6eyJ4IjowLjQ4LCJ5Ijo0Mi45MzJ9LCJoYW5kbGVNb2RlIjoic21vb3RoIiwiaGFuZGxlT3V0Ijp7IngiOi0wLjQ3MSwieSI6LTQyLjE1NH0sImlkIjoic2dfdXBwZXJfYm91dF9vdXRlcl9yaWdodCIsInBvc2l0aW9uIjp7IngiOjEzNS44NzQ0NDg0MTEzMjA0MywieSI6MTA2LjY4OTg1MDUyOTU1OTg2fX0seyJiZXZlbEludGVuc2l0eSI6MC45NSwiaGFuZGxlSW4iOnsieCI6Ny41NDIsInkiOi02LjI5MX0sImhhbmRsZU1vZGUiOiJzbW9vdGgiLCJoYW5kbGVPdXQiOnsieCI6LTIuNTMsInkiOjIuMTF9LCJpZCI6InNnX3VwcGVyX2hvcm5fdGlwX3JpZ2h0IiwicG9zaXRpb24iOnsieCI6OTQuNTksInkiOjI1LjY5N30sInNlbWFudGljUm9sZSI6InVwcGVyX2hvcm5fcmlnaHQifSx7ImhhbmRsZUluIjp7IngiOjMyLjM4MDcyODQ1ODAwNjU0NCwieSI6LTAuMTUwNjUzNzM3MDg1NDY4Mn0sImhhbmRsZU1vZGUiOiJzbW9vdGgiLCJoYW5kbGVPdXQiOnsieCI6LTI0Ljg2MTIwNjEwMzk3ODEzNywieSI6MC4xMTU2Njg2MDI0Nzk4MjYzNH0sImlkIjoic2dfaG9ybl9zY29vcF9yaWdodCIsInBvc2l0aW9uIjp7IngiOjU4Ljg4MzI4NDMwNDM0NzczLCJ5Ijo2NS4wMzA1OTAzNjg2MjAwNX19LHsiYmV2ZWxJbnRlbnNpdHkiOjAsImhhbmRsZUluIjp7IngiOjIuNjE1LCJ5IjoxNS45ODh9LCJoYW5kbGVNb2RlIjoiY29ybmVyIiwiaWQiOiJhbmNob3JfMTc4NjA1MDg2MzgwM18wNjdycSIsInBvc2l0aW9uIjp7IngiOjMxLjgzNzQyMDYzNTQ3MTgwNSwieSI6NDMuNjU3MDIyMDA4MTgzNzl9LCJzZW1hbnRpY1JvbGUiOiJjdXN0b20ifSx7ImJldmVsSW50ZW5zaXR5IjowLCJoYW5kbGVNb2RlIjoiY29ybmVyIiwiaGFuZGxlT3V0Ijp7IngiOi0yMS4wMjMsInkiOi0wLjQyM30sImlkIjoic2dfcG9ja2V0X3JpZ2h0IiwicG9zaXRpb24iOnsieCI6MzEuNzUwMDAwMDAwMDAwMDEsInkiOjB9LCJzZW1hbnRpY1JvbGUiOiJuZWNrX3BvY2tldF9yaWdodCJ9XSwiY2xvc2VkIjp0cnVlfSwiZWRnZVByb2ZpbGUiOnsiYW5nbGVEZWdyZWVzIjo0NSwiYXBwbGllc1RvIjoidG9wX2FuZF9iYWNrIiwia2luZCI6ImJldmVsZWQiLCJ3aWR0aE1tIjoxNX0sImZyb250Um91dGVzIjpbXSwiaW5zdHJ1bWVudFR5cGUiOiJiYXNzIiwibWV0YWRhdGEiOnsiYXV0aG9yIjoiQXhlIFNoYXBlciBMdXRoaWVyIiwiY3JlYXRlZCI6IjIwMjYtMDgtMjhUMjA6MTQ6NDIuNjQyWiIsIm1vZGlmaWVkIjoiMjAyNi0wOC0yOVQxOTo1NTowMC43MzNaIn0sIm5lY2tKb2ludE1lY2hhbmlzbSI6ImdsdWVkIiwibmVja1ByZXNldCI6eyJmcmV0cyI6MjAsImlkIjoiYmFzc19zaG9ydF8zMF81Iiwiam9pbnRDb3JuZXJSYWRpdXNNbSI6Ni4zNSwiam9pbnREZXB0aE1tIjo5OC40MjUsImpvaW50V2lkdGhNbSI6NjMuNSwibmFtZSI6IkJhc3MgU2hvcnQgU2NhbGUgKDMwLjVcIiBTY2FsZSwgMjAgRnJldHMpIiwibnV0U3RyaW5nU3BhY2luZ01tIjozMCwibnV0VG9Cb2R5RWRnZU1tIjo0MzQuNzAwMDAwMDAwMDAwMDUsIm51dFRvSm9pbnRNbSI6NTM1LjY4NDgsInBvY2tldENvcm5lclJhZGl1c01tIjo2LjM1LCJwb2NrZXREZXB0aE1tIjo5OC40MjUsInBvY2tldFdpZHRoTW0iOjYzLjUsInNjYWxlTGVuZ3RoTW0iOjc3NC43LCJzdHlsZSI6ImdpYnNvbl9zdHlsZSJ9LCJuZWNrUHJlc2V0SWQiOiJiYXNzX3Nob3J0XzMwXzUiLCJwaWNrZ3VhcmRzIjpbeyJjb2xvckhleCI6IiNmZmZmZmYiLCJjb250b3VyIjp7ImFuY2hvcnMiOlt7ImhhbmRsZU1vZGUiOiJjb3JuZXIiLCJoYW5kbGVPdXQiOnsieCI6MCwieSI6MH0sImlkIjoiYW5jaG9yXzE3ODc5NDg2ODgxMDNfcG9tcXgiLCJwb3NpdGlvbiI6eyJ4IjozMS42NDA5NzM3MDc2MDI0MzgsInkiOjYzLjQzMjIwOTMxNzMxNDM0fX0seyJoYW5kbGVJbiI6eyJ4IjotMjIuMzE2MzUzMzQ1NTIzMzQsInkiOjAuOTM0NTAxODkzMDQxNjY3OX0sImhhbmRsZU1vZGUiOiJzbW9vdGgiLCJoYW5kbGVPdXQiOnsieCI6MTkuMTg0MzE0MzQ5MjE3OTksInkiOi0wLjgwMzM0NzExNDkzNzQzOX0sImlkIjoiYW5jaG9yXzE3ODc5NDg3MjE2NjFfOWRxczgiLCJwb3NpdGlvbiI6eyJ4Ijo3My40NzA1NDE3NzIxNjMzMywieSI6ODUuMzA3NDYzMTQxMjA1NzJ9LCJzZW1hbnRpY1JvbGUiOiJjdXN0b20ifSx7ImhhbmRsZUluIjp7IngiOi00LjA1NjA1MjkxNDI0NzU5MywieSI6MC4zMzgwMDQ0MDk1MjA2MzI3Nn0sImhhbmRsZU1vZGUiOiJjb3JuZXIiLCJoYW5kbGVPdXQiOnsieCI6NS43NDYwNzQ5NjE4NTA3NTY1LCJ5IjowfSwiaWQiOiJhbmNob3JfMTc4Nzk0ODY4ODEwM19mM3cxZyIsInBvc2l0aW9uIjp7IngiOjEwMC40ODY4MjgxOTM0MjE1NywieSI6NTguMzYyMTQzMTc0NTA0ODV9fSx7ImhhbmRsZUluIjp7IngiOi0wLjY1OTk5MDE1MDc0NTY3MDcsInkiOi0yNC42Nzk1MDU2MTkyMzA5OH0sImhhbmRsZU1vZGUiOiJzbW9vdGgiLCJoYW5kbGVPdXQiOnsieCI6MC42Njc0MTAwMDk1Mjg4MjI1LCJ5IjoyNC45NTY5NjE5NTE0NTkzNjN9LCJpZCI6ImFuY2hvcl8xNzg3OTQ4NzM1MjM2X2c3MjFmIiwicG9zaXRpb24iOnsieCI6MTEzLjEyNDQ3ODI2MzgxOTYsInkiOjEwMi44ODY3MDk0NTc3ODQ3Nn0sInNlbWFudGljUm9sZSI6ImN1c3RvbSJ9LHsiaGFuZGxlSW4iOnsieCI6Mi45OTA3NTc1NTA5NjAzODg4LCJ5IjotMTguNzY4MDAzMzEzODU3OTJ9LCJoYW5kbGVNb2RlIjoic21vb3RoIiwiaGFuZGxlT3V0Ijp7IngiOi01LjgyOTA3NjUxMzg3MDEwMSwieSI6MzYuNTc5NDAzNTM0MDM2MDV9LCJpZCI6ImFuY2hvcl8xNzg3OTQ4NzQwMjUyX3RvMjZhIiwicG9zaXRpb24iOnsieCI6OTYuMDY4NTY5NjI4NDUyOSwieSI6MTgxLjAzNzk5NjE3NjI5NjV9LCJzZW1hbnRpY1JvbGUiOiJjdXN0b20ifSx7ImhhbmRsZUluIjp7IngiOi04LjQ1MDExMDIzODAxNTgxOSwieSI6LTE1Ljg4NjIwNzI0NzQ2OTc0fSwiaGFuZGxlTW9kZSI6ImNvcm5lciIsImhhbmRsZU91dCI6eyJ4IjotMjYuMzY0MzQzOTQyNjA5MzU2LCJ5IjoyNy4wNDAzNTI3NjE2NTA2Mn0sImlkIjoiYW5jaG9yXzE3ODc5NDg2ODgxMDNfZWlvczYiLCJwb3NpdGlvbiI6eyJ4IjoxMDcuMjQ2OTE2MzgzODM0MjMsInkiOjIzNi4zMjU2ODIwOTcyMDU2OX19LHsiaGFuZGxlSW4iOnsieCI6MTkuNDg0MTY1MTgyODc4NTUsInkiOjI4Ljk5NDcyODE0MzY2OTY2fSwiaGFuZGxlTW9kZSI6InNtb290aCIsImhhbmRsZU91dCI6eyJ4IjotMTEuNDg1NTk2MTEwMTEwMDQ1LCJ5IjotMTcuMDkxOTE3MTM2NTUwOTA0fSwiaWQiOiJhbmNob3JfMTc4Nzk0ODc2Mjk1OF8yajdydCIsInBvc2l0aW9uIjp7IngiOjM1LjE1NDQ0MzgwNDQ1MzA3NCwieSI6MjI4Ljc3NjYwMjA1NDg5Nzh9LCJzZW1hbnRpY1JvbGUiOiJjdXN0b20ifSx7ImhhbmRsZUluIjp7IngiOi0zLjkwNTQ1NTEzOTE5OTUzMiwieSI6MjcuMzQyMzYzNTc2NjU4MTZ9LCJoYW5kbGVNb2RlIjoic21vb3RoIiwiaGFuZGxlT3V0Ijp7IngiOjAuNTIyMTMyODkxMjI5MjkwNCwieSI6LTMuNjU1NDg4NzU1NzIyNjE1Mn0sImlkIjoiYW5jaG9yXzE3ODc5NDg4NDI4MTRfM21zN28iLCJwb3NpdGlvbiI6eyJ4IjoyNC44MzcyNTMyMDY2NjU4NDIsInkiOjE1MS40MjM1Njg0NzM0NjgzOH0sInNlbWFudGljUm9sZSI6ImN1c3RvbSJ9LHsiaGFuZGxlSW4iOnsieCI6LTAuMDEyMDQ0MzY2NTc2MDIxNTQ1LCJ5Ijo4LjM3MDYwNzg3MTQxMDMxMn0sImhhbmRsZU1vZGUiOiJjb3JuZXIiLCJpZCI6ImFuY2hvcl8xNzg3OTQ4ODY0MzI1X3ZvbDMwIiwicG9zaXRpb24iOnsieCI6NTIuNTUyMDg3MTk4MzE0OTUsInkiOjE0Ni4xODU1MDE4ODk3NTkzNH0sInNlbWFudGljUm9sZSI6ImN1c3RvbSJ9LHsiaGFuZGxlTW9kZSI6ImNvcm5lciIsImhhbmRsZU91dCI6eyJ4IjotMC4zNDc4MDczODMyNzAzNzIyNSwieSI6LTguODQ2NzIzMDc1OTAyMDF9LCJpZCI6ImFuY2hvcl8xNzg3OTQ4ODU5MjE0X3V0a2hrIiwicG9zaXRpb24iOnsieCI6NTIuNTUwMTE1MTQzNzQ0NTMsInkiOjEwNi45OTgzMDY3NTc1MzUxMn0sInNlbWFudGljUm9sZSI6ImN1c3RvbSJ9LHsiaGFuZGxlSW4iOnsieCI6My43NzgzNDM1NjIxNTQ0NjgzLCJ5IjotMC4xNTc0MzA5ODE3NTY0MzQxfSwiaGFuZGxlTW9kZSI6ImNvcm5lciIsImlkIjoiYW5jaG9yXzE3ODc5NDg2ODgxMDNfMWRiYWkiLCJwb3NpdGlvbiI6eyJ4IjozMS45Nzg5NzgxMTcxMjMwNywieSI6OTkuNDMzODk2MjQxMzQ5NDJ9fV0sImNsb3NlZCI6dHJ1ZX0sImlkIjoicGlja2d1YXJkXzE3ODc5NDg2ODgxMDNfOXlxYjQiLCJsb2NrZWQiOmZhbHNlLCJ2aXNpYmxlIjp0cnVlfV0sInBpY2t1cHMiOlt7ImFuY2hvcnMiOlt7ImhhbmRsZUluIjp7IngiOi0yLjIxNiwieSI6MH0sImhhbmRsZU1vZGUiOiJjb3JuZXIiLCJpZCI6ImJhc3NfbXVkYnVja2VyX2EwIiwicG9zaXRpb24iOnsieCI6LTMwLjE1MjA4LCJ5IjotMjEuNjE2NjY3fX0seyJoYW5kbGVNb2RlIjoiY29ybmVyIiwiaGFuZGxlT3V0Ijp7IngiOjIuMjE2LCJ5IjowfSwiaWQiOiJiYXNzX211ZGJ1Y2tlcl9hMSIsInBvc2l0aW9uIjp7IngiOjMwLjE1MjA5LCJ5IjotMjEuNjE2NjY3fX0seyJoYW5kbGVJbiI6eyJ4IjowLCJ5IjotMi4yMTZ9LCJoYW5kbGVNb2RlIjoiY29ybmVyIiwiaWQiOiJiYXNzX211ZGJ1Y2tlcl9hMiIsInBvc2l0aW9uIjp7IngiOjM0LjE1MjA4LCJ5IjotMTcuNjE2NjY3fX0seyJoYW5kbGVNb2RlIjoiY29ybmVyIiwiaGFuZGxlT3V0Ijp7IngiOjAsInkiOjIuMjE2fSwiaWQiOiJiYXNzX211ZGJ1Y2tlcl9hMyIsInBvc2l0aW9uIjp7IngiOjM0LjE1MjA4LCJ5IjoxNy42MTY2Njd9fSx7ImhhbmRsZUluIjp7IngiOjIuMjE2LCJ5IjowfSwiaGFuZGxlTW9kZSI6ImNvcm5lciIsImlkIjoiYmFzc19tdWRidWNrZXJfYTQiLCJwb3NpdGlvbiI6eyJ4IjozMC4xNTIwOSwieSI6MjEuNjE2NjY3fX0seyJoYW5kbGVNb2RlIjoiY29ybmVyIiwiaGFuZGxlT3V0Ijp7IngiOi0yLjIxNiwieSI6MH0sImlkIjoiYmFzc19tdWRidWNrZXJfYTUiLCJwb3NpdGlvbiI6eyJ4IjotMzAuMTUyMDgsInkiOjIxLjYxNjY2N319LHsiaGFuZGxlSW4iOnsieCI6MCwieSI6Mi4yMTZ9LCJoYW5kbGVNb2RlIjoiY29ybmVyIiwiaWQiOiJiYXNzX211ZGJ1Y2tlcl9hNiIsInBvc2l0aW9uIjp7IngiOi0zNC4xNTIwOCwieSI6MTcuNjE2NjY3fX0seyJoYW5kbGVNb2RlIjoiY29ybmVyIiwiaGFuZGxlT3V0Ijp7IngiOjAsInkiOi0yLjIxNn0sImlkIjoiYmFzc19tdWRidWNrZXJfYTciLCJwb3NpdGlvbiI6eyJ4IjotMzQuMTUyMDgsInkiOi0xNy42MTY2Njd9fV0sImFuZ2xlRGVncmVlcyI6MCwiaGVpZ2h0TW0iOjQzLjIzMzMzMywiaWQiOiJzZ19iYXNzX3N0eWxlX3BpY2t1cF8wIiwib2Zmc2V0WE1tIjowLCJvZmZzZXRZTW0iOjEyNy4wNzY0MjE1MjE3Mzg2MSwidHlwZSI6ImJhc3NfbXVkYnVja2VyIiwid2lkdGhNbSI6NjguMzA0MTZ9XSwic2NoZW1hVmVyc2lvbiI6Mywic2V0dGluZ3MiOnsiYm9keUNvbG9yIjoiIzNiODJmNiIsImJvZHlGaWxsT3BhY2l0eSI6MC4zNSwiY2FudmFzT3JpZW50YXRpb24iOiJ2ZXJ0aWNhbCIsImZpbmlzaFN0eWxlIjoic3VuYnVyc3QiLCJncmlkU2l6ZU1tIjo1MCwibmFtZSI6IkN1c3RvbSBTRy1TdHlsZSBCYXNzIEJsdWVwcmludCIsInBpY2tndWFyZENvbG9yIjoiI2ZmZmZmZiIsInBpY2tndWFyZEVuYWJsZWQiOnRydWUsInNlY29uZGFyeUNvbG9yIjoiI2Y1OWUwYiIsInNob3dDZW50ZXJBeGlzIjp0cnVlLCJzaG93RGltZW5zaW9ucyI6dHJ1ZSwic2hvd0dob3N0R3VpZGUiOnRydWUsInNob3dHcmlkIjp0cnVlLCJzaG93SGFyZHdhcmVDYXZpdGllcyI6dHJ1ZSwic25hcFRvR3JpZEVuYWJsZWQiOmZhbHNlLCJzeW1tZXRyeSI6eyJtb2RlIjoibm9uZSIsInNvdXJjZVNpZGUiOiJsZWZ0In0sInVuaXREaXNwbGF5IjoibW0ifSwic3RyaW5nQ291bnQiOjR9</project:data>
</metadata>
<style>
.outline{fill:none;stroke:#111;stroke-width:0.40;stroke-linecap:round;stroke-linejoin:round}
.edge-inset{fill:none;stroke:#555;stroke-width:0.30;stroke-dasharray:3 2}
.neck-pocket{fill:#e5e7eb;stroke:#374151;stroke-width:0.40}
.pickup-rout{fill:#ccfbf1;stroke:#0f766e;stroke-width:0.30}
.pickup-cover{fill:none;stroke:#111;stroke-width:0.30}
.bridge-rout{fill:none;stroke:#007bff;stroke-width:0.30}
.back-route{fill:#f3e8ff;stroke:#7e22ce;stroke-width:0.30;stroke-dasharray:3.00 2.00}
.front-route{fill:#ccfbf1;stroke:#0f766e;stroke-width:0.30}
.pickguard{fill:#fff;fill-opacity:0.35;stroke:#6b7280;stroke-width:0.30}
.center-axis{fill:none;stroke:#6c757d;stroke-width:0.20;stroke-dasharray:6 4;opacity:0.7}
.bridge-reference{fill:none;stroke:#dc3545;stroke-width:0.30}
.mounting-hole{fill:#007bff;stroke:none}
.calibration-box{fill:none;stroke:#d9534f;stroke-width:0.40;stroke-dasharray:3 3}
.band-rule{fill:none;stroke:#adb5bd;stroke-width:0.20}
.text-label{font-family:monospace,sans-serif;font-size:5px;fill:#d9534f}
.disclaimer-label{font-family:monospace,sans-serif;font-size:4.5px;font-style:italic;fill:#6c757d}
.axis-label{font-family:monospace,sans-serif;font-size:5px;fill:#6c757d}
.title-label{font-family:sans-serif;font-size:10px;font-weight:bold;fill:#222}
</style>
<g id="guides">
<line class="center-axis" x1="0" y1="-15.42" x2="0" y2="444.41"/>
<line class="center-axis" x1="-191.59" y1="0" x2="171.36" y2="0"/>
<text class="axis-label" x="175.36" y="3">Y=0 (Joint Line)</text>
<line class="center-axis" x1="-191.59" y1="340.00" x2="171.36" y2="340.00" stroke="#007bff"/>
<text class="axis-label" x="175.36" y="343.00" fill="#007bff">Scale Line (340.0mm)</text>
</g>
<g id="back-routes">
<path class="back-route" d="M 61.07 373.39 C 70.70 363.40, 88.31 367.41, 102.15 352.29 C 116.72 336.36, 110.97 320.39, 118.75 311.87 C 138.01 290.79, 158.26 304.82, 158.17 323.49 C 158.11 334.31, 156.34 358.35, 135.45 381.38 C 115.20 403.70, 91.27 405.25, 77.96 409.62 C 59.26 415.76, 45.18 389.88, 61.07 373.39 Z"/>
</g>
<g id="body">
<path class="outline" d="M -31.75 0.00 C -31.75 0.00, -31.98 48.69, -31.98 48.69 C -34.44 72.61, -61.29 74.80, -78.26 58.75 C -101.33 36.93, -74.98 11.33, -85.49 6.02 C -95.47 0.98, -135.89 27.20, -139.36 106.01 C -141.45 153.63, -117.91 167.67, -116.90 195.54 C -115.92 222.30, -138.67 240.37, -156.32 267.71 C -176.59 299.10, -173.81 371.30, -130.13 397.69 C -90.40 421.71, -62.71 429.41, -0.48 429.41 C 61.75 429.41, 95.71 421.37, 131.77 397.01 C 171.36 370.25, 170.88 315.55, 160.30 288.87 C 143.25 245.86, 116.31 232.35, 113.88 203.11 C 111.23 171.17, 136.35 149.62, 135.87 106.69 C 135.40 64.54, 102.13 19.41, 94.59 25.70 C 92.06 27.81, 91.26 64.88, 58.88 65.03 C 34.02 65.15, 34.45 59.65, 31.84 43.66 C 31.84 43.66, 31.75 0.00, 31.75 0.00 C 10.73 -0.42, -10.72 0.04, -31.75 0.00 Z"/>
<path class="edge-inset" d="M -31.75 0.00 L -31.98 48.69 L -32.50 52.97 L -33.27 56.95 L -34.43 60.72 L -36.08 64.29 L -38.31 67.64 L -41.14 70.71 L -44.55 73.41 L -48.50 75.68 L -52.92 77.43 L -57.73 78.59 L -62.84 79.11 L -68.15 78.90 L -73.53 77.91 L -78.85 76.06 L -83.94 73.32 L -88.70 69.57 L -93.84 63.78 L -97.71 57.43 L -100.22 50.88 L -101.47 44.44 L -101.67 38.36 L -101.10 32.79 L -100.03 27.76 L -99.29 24.31 L -99.29 24.31 L -99.29 24.31 L -99.29 24.31 L -99.29 24.31 L -99.29 24.31 L -99.29 24.31 L -99.29 24.31 L -99.29 24.31 L -99.29 24.31 L -99.29 24.31 L -99.29 24.31 L -99.29 24.31 L -101.68 27.00 L -105.25 31.75 L -108.76 37.48 L -112.08 44.22 L -115.08 51.98 L -117.66 60.78 L -119.68 70.65 L -121.05 81.60 L -121.67 93.78 L -121.63 100.09 L -121.36 106.66 L -120.52 114.16 L -119.10 120.62 L -117.27 126.27 L -115.16 131.24 L -112.88 135.69 L -110.45 139.79 L -107.92 143.70 L -105.31 147.55 L -99.64 156.22 L -94.18 165.91 L -91.50 172.16 L -89.27 178.94 L -87.66 186.41 L -86.87 194.51 L -87.04 202.63 L -88.11 210.51 L -89.97 217.96 L -92.45 224.90 L -95.41 231.30 L -98.71 237.20 L -102.24 242.64 L -105.99 247.84 L -113.29 256.83 L -120.69 265.36 L -127.74 273.58 L -134.23 281.92 L -135.34 283.46 L -136.30 284.95 L -138.67 289.80 L -140.70 295.29 L -142.38 301.60 L -143.63 308.53 L -144.36 315.90 L -144.55 323.53 L -144.16 331.26 L -143.18 338.93 L -141.52 346.64 L -140.59 350.03 L -139.43 353.54 L -138.13 356.94 L -136.68 360.21 L -135.10 363.35 L -133.38 366.34 L -131.52 369.17 L -129.53 371.85 L -127.40 374.37 L -125.11 376.73 L -122.67 378.94 L -119.94 381.06 L -106.90 389.74 L -100.83 393.48 L -94.78 396.94 L -88.77 400.09 L -82.72 402.95 L -76.51 405.56 L -70.08 407.94 L -63.31 410.10 L -56.14 412.05 L -48.48 413.81 L -40.25 415.36 L -31.40 416.73 L -21.91 417.90 L -0.48 419.66 L 21.31 420.58 L 31.25 420.69 L 40.71 420.54 L 49.68 420.12 L 58.22 419.41 L 66.37 418.41 L 74.18 417.10 L 81.69 415.46 L 88.96 413.50 L 96.01 411.18 L 102.91 408.51 L 109.68 405.46 L 116.38 402.02 L 123.03 398.17 L 129.65 393.91 L 133.09 391.44 L 136.28 388.84 L 139.26 386.10 L 142.03 383.24 L 144.60 380.26 L 146.94 377.21 L 151.15 370.69 L 154.61 363.88 L 157.39 356.82 L 159.52 349.58 L 161.04 342.25 L 161.98 334.90 L 162.39 327.63 L 162.30 320.52 L 161.77 313.66 L 160.84 307.14 L 159.55 301.05 L 157.95 295.48 L 156.11 290.49 L 152.72 283.10 L 149.10 276.33 L 145.32 270.15 L 141.45 264.50 L 133.55 254.24 L 125.83 245.01 L 118.63 236.15 L 115.25 231.52 L 112.17 226.70 L 109.43 221.59 L 107.11 216.11 L 105.32 210.22 L 104.15 203.93 L 103.61 197.05 L 103.72 190.38 L 104.38 183.92 L 105.49 177.67 L 106.93 171.62 L 108.61 165.71 L 112.17 154.41 L 115.68 143.05 L 117.18 137.48 L 118.48 131.78 L 119.53 125.95 L 120.30 119.91 L 120.76 113.58 L 120.86 106.93 L 120.49 100.27 L 119.56 93.54 L 118.12 86.74 L 116.21 79.97 L 113.91 73.35 L 111.29 66.97 L 108.43 60.95 L 105.43 55.39 L 101.99 49.91 L 101.99 49.91 L 101.99 49.91 L 101.99 49.91 L 101.99 49.91 L 101.99 49.91 L 101.99 49.91 L 101.99 49.91 L 101.99 49.91 L 101.99 49.91 L 101.99 49.91 L 101.99 49.91 L 101.99 49.91 L 101.99 49.91 L 101.99 49.91 L 100.99 52.39 L 98.54 57.14 L 95.42 61.95 L 91.50 66.63 L 86.68 70.98 L 80.93 74.73 L 74.30 77.61 L 66.93 79.43 L 59.26 80.05 L 49.62 78.19 L 42.45 74.49 L 39.17 72.26 L 36.49 69.90 L 34.30 67.37 L 32.67 64.70 L 31.66 61.99 L 31.14 59.26 L 31.36 54.40 L 31.97 49.31 L 31.84 43.66 L 31.75 0.00 L 15.92 -0.17 L 0.00 -0.14 Z"/>
</g>
<g id="pickguards">
<path class="pickguard" style="fill:#ffffff" d="M 31.64 63.43 C 31.64 63.43, 51.15 86.24, 73.47 85.31 C 92.65 84.50, 96.43 58.70, 100.49 58.36 C 106.23 58.36, 112.46 78.21, 113.12 102.89 C 113.79 127.84, 99.06 162.27, 96.07 181.04 C 90.24 217.62, 98.80 220.44, 107.25 236.33 C 80.88 263.37, 54.64 257.77, 35.15 228.78 C 23.67 211.68, 20.93 178.77, 24.84 151.42 C 25.36 147.77, 52.54 154.56, 52.55 146.19 C 52.55 146.19, 52.55 107.00, 52.55 107.00 C 52.20 98.15, 35.76 99.28, 31.98 99.43 C 31.98 99.43, 31.64 63.43, 31.64 63.43 Z"/>
</g>
<g id="neck-pocket">
<rect class="neck-pocket" x="-31.75" y="0" width="63.50" height="98.42" rx="6.35"/>
</g>
<g id="pickups">
<g transform="rotate(0.00 0.00 127.08)">
<path class="pickup-rout" d="M -30.15 105.46 C -30.15 105.46, 30.15 105.46, 30.15 105.46 C 32.37 105.46, 34.15 107.24, 34.15 109.46 C 34.15 109.46, 34.15 144.69, 34.15 144.69 C 34.15 146.91, 32.37 148.69, 30.15 148.69 C 30.15 148.69, -30.15 148.69, -30.15 148.69 C -32.37 148.69, -34.15 146.91, -34.15 144.69 C -34.15 144.69, -34.15 109.46, -34.15 109.46 C -34.15 107.24, -32.37 105.46, -30.15 105.46 Z"/>
<circle cx="0.00" cy="127.08" r="1.5" fill="#28a745"/>
</g>
</g>
<g id="bridge">
<path class="bridge-rout" d="M -40.52 313.50 L 40.52 313.50 L 40.52 366.59 L -40.52 366.59 Z"/>
<path class="bridge-rout" d="M -40.52 316.70 L 40.52 316.70 L 40.52 369.79 L -40.52 369.79 Z"/>
<line class="bridge-reference" x1="-35.52" y1="340.00" x2="35.52" y2="340.00"/>
</g>
<g id="information-band">
<line class="band-rule" x1="-191.59" y1="444.41" x2="251.36" y2="444.41"/>
<text class="title-label" x="-179.59" y="464.41">Custom SG-Style Bass Blueprint - 1:1 Scale Print Template</text>
<text class="text-label" x="-179.59" y="477.41">Scale: 774.7mm (30.50&quot;) | Joint: 63.50mm W x 98.42mm D | Saddle Y: 343.20mm</text>
<text class="text-label" x="-179.59" y="487.41">Date: Not recorded | Printable 100% True Scale (Do Not Scale Page)</text>
<text class="disclaimer-label" x="-179.59" y="500.41">Editing this file in another app will not update Axe Shaper - re-importing it may discard your changes.</text>
<g id="calibration" transform="translate(-179.59 512.41)">
<rect class="calibration-box" x="0" y="0" width="100" height="100"/>
<text class="text-label" x="5" y="15" font-weight="bold">CALIBRATION BOX</text>
<text class="text-label" x="5" y="30">100 mm x 100 mm</text>
<text class="text-label" x="5" y="45">Measure with ruler</text>
<text class="text-label" x="5" y="60">to verify 100% print</text>
</g>
</g>
</svg>
